<svg width="20" height="21" viewBox="0 0 20 21" fill="none" xmlns="http://www.w3.org/2000/svg">
<path d="M12.5 4.66682L15.8334 8.00015M17.645 6.17682C18.0856 5.73634 18.3332 5.13888 18.3333 4.51587C18.3333 3.89285 18.0859 3.29533 17.6454 2.85474C17.205 2.41415 16.6075 2.16658 15.9845 2.1665C15.3615 2.16643 14.764 2.41384 14.3234 2.85432L3.20169 13.9785C3.00821 14.1714 2.86512 14.4089 2.78503 14.6702L1.68419 18.2968C1.66266 18.3689 1.66103 18.4454 1.67949 18.5184C1.69794 18.5913 1.73579 18.6578 1.78902 18.711C1.84225 18.7641 1.90888 18.8019 1.98183 18.8202C2.05477 18.8386 2.13133 18.8368 2.20336 18.8152L5.83086 17.7152C6.09183 17.6358 6.32934 17.4936 6.52253 17.301L17.645 6.17682Z" stroke="white" stroke-width="1.5" stroke-linecap="round" stroke-linejoin="round"/>
</svg>
